<svg width="43" height="48" viewBox="0 0 43 48" fill="none" xmlns="http://www.w3.org/2000/svg">
<path d="M32.25 14.9484V10.5164C32.25 9.13539 31.9719 7.76788 31.4317 6.49197C30.8915 5.21605 30.0996 4.05673 29.1014 3.08019C28.1032 2.10365 26.9181 1.32902 25.6138 0.800515C24.3096 0.272015 22.9117 0 21.5 0C20.0883 0 18.6904 0.272015 17.3862 0.800515C16.0819 1.32902 14.8968 2.10365 13.8986 3.08019C12.9004 4.05673 12.1085 5.21605 11.5683 6.49197C11.0281 7.76788 10.75 9.13539 10.75 10.5164V21.0329C10.75 21.4313 10.9118 21.8134 11.1998 22.0952C11.4878 22.3769 11.8784 22.5352 12.2857 22.5352C12.693 22.5352 13.0836 22.3769 13.3716 22.0952C13.6596 21.8134 13.8214 21.4313 13.8214 21.0329V17.9531H26.1071V14.9484H13.8214V10.5164C13.8214 8.52419 14.6304 6.61356 16.0704 5.20483C17.5104 3.79611 19.4635 3.0047 21.5 3.0047C23.5365 3.0047 25.4896 3.79611 26.9296 5.20483C28.3696 6.61356 29.1786 8.52419 29.1786 10.5164V20.9577C29.1786 21.3562 29.3404 21.7383 29.6284 22.0201C29.9164 22.3018 30.307 22.4601 30.7143 22.4601C31.1216 22.4601 31.5122 22.3018 31.8002 22.0201C32.0882 21.7383 32.25 21.3562 32.25 20.9577V17.9531H39.9286V44.9953H3.07143V17.9531H7.67857V14.9484H0V45.1305C0 45.8916 0.309034 46.6214 0.859118 47.1595C1.4092 47.6977 2.15528 48 2.93321 48H40.0668C40.8447 48 41.5908 47.6977 42.1409 47.1595C42.691 46.6214 43 45.8916 43 45.1305V14.9484H32.25Z" fill="black"/>
</svg>
