<svg width="93" height="89" viewBox="0 0 93 89" fill="none" xmlns="http://www.w3.org/2000/svg">
<path d="M11.7356 84.2C11.3756 84.2 11.009 84.1333 10.6356 84C10.2756 83.8667 9.88896 83.6467 9.47563 83.34C9.07563 83.0333 8.61563 82.6333 8.09563 82.14L3.17563 77.36V84H1.43563V70H3.17563V75.16L8.63563 80.4C9.06229 80.8133 9.42896 81.1533 9.73563 81.42C10.0556 81.6733 10.3356 81.8733 10.5756 82.02C10.829 82.1533 11.0556 82.2533 11.2556 82.32C11.4556 82.3733 11.6623 82.4 11.8756 82.4C11.9023 82.4 11.9423 82.4 11.9956 82.4C12.049 82.4 12.0956 82.4 12.1356 82.4V84.16C12.0556 84.1733 11.9823 84.18 11.9156 84.18C11.849 84.1933 11.789 84.2 11.7356 84.2ZM5.39563 77.98L4.29563 76.96C4.66896 76.6933 5.07563 76.38 5.51563 76.02C5.95563 75.66 6.39563 75.2667 6.83563 74.84C7.28896 74.4133 7.73563 73.9467 8.17563 73.44C8.61563 72.92 9.02229 72.3667 9.39563 71.78C9.78229 71.1933 10.1223 70.5667 10.4156 69.9L11.7556 70.56C11.4223 71.4133 11.009 72.2067 10.5156 72.94C10.0356 73.6733 9.50896 74.3533 8.93563 74.98C8.36229 75.5933 7.76896 76.1533 7.15563 76.66C6.55563 77.1533 5.96896 77.5933 5.39563 77.98ZM13.057 81.42C13.057 80.78 13.1904 80.2533 13.457 79.84C13.7237 79.4267 14.1304 79.1 14.677 78.86C15.2237 78.6067 15.897 78.4133 16.697 78.28C17.497 78.1333 18.4237 78.0133 19.477 77.92V76.42C19.477 75.8067 19.277 75.34 18.877 75.02C18.477 74.6867 17.877 74.52 17.077 74.52C16.8104 74.52 16.5104 74.5333 16.177 74.56C15.8437 74.5867 15.497 74.6333 15.137 74.7C14.777 74.7667 14.4037 74.86 14.017 74.98L13.717 73.62C14.2904 73.4467 14.877 73.3133 15.477 73.22C16.077 73.1267 16.6437 73.08 17.177 73.08C18.057 73.08 18.7904 73.2067 19.377 73.46C19.977 73.7 20.4237 74.0667 20.717 74.56C21.0237 75.0533 21.177 75.6667 21.177 76.4V81.6C21.177 82.04 21.237 82.34 21.357 82.5C21.4904 82.6467 21.6637 82.72 21.877 82.72C21.957 82.72 22.0437 82.7133 22.137 82.7C22.2304 82.6867 22.3304 82.66 22.437 82.62L22.617 83.86C22.417 83.9667 22.2037 84.0467 21.977 84.1C21.7637 84.1667 21.537 84.2 21.297 84.2C20.817 84.2 20.437 84.08 20.157 83.84C19.877 83.5867 19.697 83.2067 19.617 82.7C19.297 82.9533 18.937 83.2 18.537 83.44C18.1504 83.6667 17.7237 83.8533 17.257 84C16.8037 84.1333 16.3037 84.2 15.757 84.2C15.3437 84.2 14.9704 84.14 14.637 84.02C14.317 83.9 14.037 83.7267 13.797 83.5C13.557 83.26 13.3704 82.9667 13.237 82.62C13.117 82.2733 13.057 81.8733 13.057 81.42ZM14.757 81.28C14.757 81.8533 14.897 82.2867 15.177 82.58C15.4704 82.86 15.857 83 16.337 83C16.7104 83 17.0837 82.94 17.457 82.82C17.8304 82.7 18.1904 82.54 18.537 82.34C18.897 82.1267 19.2104 81.8867 19.477 81.62V78.92C18.7704 78.9867 18.1237 79.0667 17.537 79.16C16.9637 79.24 16.4637 79.3667 16.037 79.54C15.6237 79.7133 15.3037 79.94 15.077 80.22C14.8637 80.5 14.757 80.8533 14.757 81.28ZM24.4784 84V75.42H22.7984V74.3L24.4784 74.16V73.96C24.4784 73.0533 24.5784 72.2867 24.7784 71.66C24.9784 71.0333 25.2651 70.5333 25.6384 70.16C26.0118 69.7867 26.4584 69.5133 26.9784 69.34C27.4984 69.1667 28.0651 69.08 28.6784 69.08C29.1184 69.08 29.5651 69.1267 30.0184 69.22C30.4851 69.3133 30.9718 69.4533 31.4784 69.64C31.7718 69.4133 32.0984 69.2533 32.4584 69.16C32.8318 69.0533 33.2384 69 33.6784 69C34.1051 69 34.5184 69.0333 34.9184 69.1C35.3318 69.1667 35.7651 69.2733 36.2184 69.42L35.9784 70.66C35.6318 70.5533 35.2984 70.4733 34.9784 70.42C34.6584 70.3667 34.3384 70.34 34.0184 70.34C33.2451 70.34 32.6584 70.6067 32.2584 71.14C31.8718 71.66 31.6784 72.5267 31.6784 73.74V74.18H34.8784V75.42H31.6784V84H30.0184V75.42H26.1184V84H24.4784ZM26.1384 74.2H30.0184V73.72C30.0184 73.0133 30.0784 72.4133 30.1984 71.92C30.3184 71.4267 30.4918 71.0267 30.7184 70.72C30.3718 70.6133 30.0451 70.5333 29.7384 70.48C29.4318 70.4133 29.1318 70.38 28.8384 70.38C28.2518 70.38 27.7584 70.4933 27.3584 70.72C26.9584 70.9467 26.6518 71.32 26.4384 71.84C26.2384 72.36 26.1384 73.0667 26.1384 73.96V74.2ZM40.0831 84.2C39.3498 84.2 38.6965 84.1 38.1231 83.9C37.5498 83.7 37.0631 83.3867 36.6631 82.96C36.2765 82.5333 35.9765 81.9867 35.7631 81.32C35.5631 80.6533 35.4631 79.8533 35.4631 78.92C35.4631 77.84 35.5831 76.9267 35.8231 76.18C36.0765 75.42 36.4298 74.8133 36.8831 74.36C37.3365 73.9067 37.8565 73.58 38.4431 73.38C39.0431 73.18 39.6965 73.08 40.4031 73.08C41.7631 73.08 42.7765 73.4467 43.4431 74.18C44.1098 74.9 44.4431 76.0733 44.4431 77.7C44.4431 77.78 44.4365 77.8933 44.4231 78.04C44.4231 78.1867 44.4165 78.3267 44.4031 78.46C44.1231 78.4733 43.7431 78.5 43.2631 78.54C42.7965 78.58 42.2498 78.62 41.6231 78.66C40.9965 78.7 40.3098 78.7333 39.5631 78.76C38.8165 78.7867 38.0298 78.8067 37.2031 78.82C37.1898 78.8867 37.1831 78.9533 37.1831 79.02C37.1831 79.0867 37.1831 79.16 37.1831 79.24C37.1831 80.1067 37.3031 80.8067 37.5431 81.34C37.7965 81.86 38.1565 82.24 38.6231 82.48C39.1031 82.72 39.6831 82.84 40.3631 82.84C40.7898 82.84 41.2231 82.82 41.6631 82.78C42.1031 82.7267 42.5231 82.66 42.9231 82.58C43.3365 82.5 43.7165 82.42 44.0631 82.34L44.2831 83.6C43.9231 83.72 43.5165 83.8267 43.0631 83.92C42.6231 84.0133 42.1565 84.08 41.6631 84.12C41.1698 84.1733 40.6431 84.2 40.0831 84.2ZM37.2231 77.66C37.8631 77.66 38.4765 77.6533 39.0631 77.64C39.6631 77.6133 40.2098 77.5867 40.7031 77.56C41.2098 77.5333 41.6365 77.5067 41.9831 77.48C42.3298 77.4533 42.5831 77.4333 42.7431 77.42C42.7298 76.6733 42.6365 76.0733 42.4631 75.62C42.2898 75.1667 42.0231 74.84 41.6631 74.64C41.3031 74.4267 40.8431 74.32 40.2831 74.32C39.9365 74.32 39.5965 74.3733 39.2631 74.48C38.9298 74.5733 38.6165 74.7467 38.3231 75C38.0431 75.24 37.8031 75.58 37.6031 76.02C37.4165 76.4467 37.2898 76.9933 37.2231 77.66ZM49.0775 84L45.1375 73.32L46.8975 73.22L50.0375 82.34L53.1175 73.22L54.8575 73.32L50.8975 84H49.0775ZM55.2641 81.42C55.2641 80.78 55.3974 80.2533 55.6641 79.84C55.9307 79.4267 56.3374 79.1 56.8841 78.86C57.4307 78.6067 58.1041 78.4133 58.9041 78.28C59.7041 78.1333 60.6307 78.0133 61.6841 77.92V76.42C61.6841 75.8067 61.4841 75.34 61.0841 75.02C60.6841 74.6867 60.0841 74.52 59.2841 74.52C59.0174 74.52 58.7174 74.5333 58.3841 74.56C58.0507 74.5867 57.7041 74.6333 57.3441 74.7C56.9841 74.7667 56.6107 74.86 56.2241 74.98L55.9241 73.62C56.4974 73.4467 57.0841 73.3133 57.6841 73.22C58.2841 73.1267 58.8507 73.08 59.3841 73.08C60.2641 73.08 60.9974 73.2067 61.5841 73.46C62.1841 73.7 62.6307 74.0667 62.9241 74.56C63.2307 75.0533 63.3841 75.6667 63.3841 76.4V81.6C63.3841 82.04 63.4441 82.34 63.5641 82.5C63.6974 82.6467 63.8707 82.72 64.0841 82.72C64.1641 82.72 64.2507 82.7133 64.3441 82.7C64.4374 82.6867 64.5374 82.66 64.6441 82.62L64.8241 83.86C64.6241 83.9667 64.4107 84.0467 64.1841 84.1C63.9707 84.1667 63.7441 84.2 63.5041 84.2C63.0241 84.2 62.6441 84.08 62.3641 83.84C62.0841 83.5867 61.9041 83.2067 61.8241 82.7C61.5041 82.9533 61.1441 83.2 60.7441 83.44C60.3574 83.6667 59.9307 83.8533 59.4641 84C59.0107 84.1333 58.5107 84.2 57.9641 84.2C57.5507 84.2 57.1774 84.14 56.8441 84.02C56.5241 83.9 56.2441 83.7267 56.0041 83.5C55.7641 83.26 55.5774 82.9667 55.4441 82.62C55.3241 82.2733 55.2641 81.8733 55.2641 81.42ZM56.9641 81.28C56.9641 81.8533 57.1041 82.2867 57.3841 82.58C57.6774 82.86 58.0641 83 58.5441 83C58.9174 83 59.2907 82.94 59.6641 82.82C60.0374 82.7 60.3974 82.54 60.7441 82.34C61.1041 82.1267 61.4174 81.8867 61.6841 81.62V78.92C60.9774 78.9867 60.3307 79.0667 59.7441 79.16C59.1707 79.24 58.6707 79.3667 58.2441 79.54C57.8307 79.7133 57.5107 79.94 57.2841 80.22C57.0707 80.5 56.9641 80.8533 56.9641 81.28ZM70.1417 84.2C69.4084 84.2 68.7551 84.1 68.1817 83.9C67.6084 83.7 67.1217 83.3867 66.7217 82.96C66.3351 82.5333 66.0351 81.9867 65.8217 81.32C65.6217 80.6533 65.5217 79.8533 65.5217 78.92C65.5217 77.84 65.6417 76.9267 65.8817 76.18C66.1351 75.42 66.4884 74.8133 66.9417 74.36C67.3951 73.9067 67.9151 73.58 68.5017 73.38C69.1017 73.18 69.7551 73.08 70.4617 73.08C71.8217 73.08 72.8351 73.4467 73.5017 74.18C74.1684 74.9 74.5017 76.0733 74.5017 77.7C74.5017 77.78 74.4951 77.8933 74.4817 78.04C74.4817 78.1867 74.4751 78.3267 74.4617 78.46C74.1817 78.4733 73.8017 78.5 73.3217 78.54C72.8551 78.58 72.3084 78.62 71.6817 78.66C71.0551 78.7 70.3684 78.7333 69.6217 78.76C68.8751 78.7867 68.0884 78.8067 67.2617 78.82C67.2484 78.8867 67.2417 78.9533 67.2417 79.02C67.2417 79.0867 67.2417 79.16 67.2417 79.24C67.2417 80.1067 67.3617 80.8067 67.6017 81.34C67.8551 81.86 68.2151 82.24 68.6817 82.48C69.1617 82.72 69.7417 82.84 70.4217 82.84C70.8484 82.84 71.2817 82.82 71.7217 82.78C72.1617 82.7267 72.5817 82.66 72.9817 82.58C73.3951 82.5 73.7751 82.42 74.1217 82.34L74.3417 83.6C73.9817 83.72 73.5751 83.8267 73.1217 83.92C72.6817 84.0133 72.2151 84.08 71.7217 84.12C71.2284 84.1733 70.7017 84.2 70.1417 84.2ZM67.2817 77.66C67.9217 77.66 68.5351 77.6533 69.1217 77.64C69.7217 77.6133 70.2684 77.5867 70.7617 77.56C71.2684 77.5333 71.6951 77.5067 72.0417 77.48C72.3884 77.4533 72.6417 77.4333 72.8017 77.42C72.7884 76.6733 72.6951 76.0733 72.5217 75.62C72.3484 75.1667 72.0817 74.84 71.7217 74.64C71.3617 74.4267 70.9017 74.32 70.3417 74.32C69.9951 74.32 69.6551 74.3733 69.3217 74.48C68.9884 74.5733 68.6751 74.7467 68.3817 75C68.1017 75.24 67.8617 75.58 67.6617 76.02C67.4751 76.4467 67.3484 76.9933 67.2817 77.66ZM77.9714 73.28V74.6C78.3714 74.24 78.7447 73.9533 79.0914 73.74C79.4381 73.5133 79.7914 73.3467 80.1514 73.24C80.5114 73.1333 80.8847 73.08 81.2714 73.08C81.5514 73.08 81.8247 73.1 82.0914 73.14C82.3581 73.18 82.6047 73.2333 82.8314 73.3L82.5514 74.82C82.3114 74.7533 82.0581 74.7067 81.7914 74.68C81.5381 74.64 81.2981 74.62 81.0714 74.62C80.6047 74.62 80.1247 74.72 79.6314 74.92C79.1514 75.1067 78.6447 75.4467 78.1114 75.94V84H76.4514V73.28H77.9714ZM92.3467 84.18C92.1601 84.18 91.9667 84.1533 91.7667 84.1C91.5667 84.06 91.3467 83.96 91.1067 83.8C90.8667 83.64 90.5601 83.4 90.1867 83.08C89.8267 82.7467 89.3867 82.3067 88.8667 81.76L85.7467 78.6V84H84.1267V69.2H85.7467V76.38L89.2467 79.96C89.9267 80.64 90.4734 81.16 90.8867 81.52C91.3001 81.8667 91.6267 82.1067 91.8667 82.24C92.1201 82.36 92.3467 82.42 92.5467 82.42C92.5867 82.42 92.6267 82.42 92.6667 82.42C92.7201 82.4067 92.7734 82.3933 92.8267 82.38L92.8867 84.12C92.8067 84.1333 92.7201 84.1467 92.6267 84.16C92.5467 84.1733 92.4534 84.18 92.3467 84.18ZM87.7267 79.16L86.4067 78.44C86.8334 78.0667 87.2601 77.6867 87.6867 77.3C88.1267 76.9 88.5334 76.4867 88.9067 76.06C89.2934 75.6333 89.6334 75.18 89.9267 74.7C90.2334 74.2067 90.4801 73.6733 90.6667 73.1L92.3267 73.28C92.1267 73.88 91.8534 74.46 91.5067 75.02C91.1601 75.58 90.7667 76.1067 90.3267 76.6C89.9001 77.0933 89.4601 77.5533 89.0067 77.98C88.5534 78.3933 88.1267 78.7867 87.7267 79.16Z" fill="#2B2B2B"/>
<path d="M39.2874 29.1576C40.0117 30.6249 42.0638 32.9997 38.1182 30.7397C29.3292 25.7054 38.1924 17.5405 40.9381 12.6496C43.5856 7.934 41.6496 6.19866 39.9064 1.71326C42.1047 2.81699 45.119 5.55353 45.4779 8.10983C46.5609 15.8284 34.3147 19.0846 39.2874 29.1576Z" fill="#2B2B2B"/>
<path d="M17.6032 28.3922C35.7439 36.3631 53.4572 37.0576 69.0529 28.3922C71.9911 29.01 72.1666 31.164 72.0795 33.7574C77.5755 33.0374 81.479 37.5546 80.9524 42.9056C80.4665 47.8458 74.3159 49.4966 70.291 50.4031C69.0381 50.6852 66.2651 50.7066 65.3385 51.091C64.9528 51.2511 61.1899 55.1323 60.1111 55.9057C58.2725 57.2234 56.1811 58.0965 54.2646 59.2761L52.2723 60.1577C54.2134 60.4094 67.523 55.6141 74.0054 62.0963L43.8098 62.0302L11 61.9582C17.7341 55.2241 35.2482 60.8988 36.3419 60.3587L32.529 59.2754C30.9462 58.3551 29.1961 57.7128 27.6454 56.7305C21.2551 52.6826 16.5407 45.3946 15.1957 37.9528C14.6663 35.0231 13.4028 28.8276 17.6032 28.3919V28.3922Z" fill="#2B2B2B"/>
<path d="M72.3543 36.6462C75.964 35.9061 78.9415 39.9766 77.9258 43.318C77.125 45.9523 70.3991 47.5433 67.9522 47.7889C67.7783 47.6559 67.9236 47.3926 67.9522 47.2388C68.0491 46.7157 69.9836 43.4423 70.3598 42.3552C70.6778 41.4364 71.4487 37.2215 71.5978 36.99C71.6947 36.8397 72.1879 36.6802 72.3543 36.6462Z" fill="#F5F6F8"/>
<path d="M49.6631 13.9432C51.4812 18.6161 47.3802 21.6583 44.8968 24.9642C43.6965 26.5731 42.8639 28.3069 43.5144 30.3209C43.5078 30.4093 44.1454 31.4426 43.9595 31.5986C43.0077 31.3929 41.7501 30.068 41.6561 29.0765C41.618 28.6739 41.6561 28.2811 41.7577 27.8939C42.4198 24.4056 45.4498 22.1852 47.3462 19.4112C48.0105 18.4276 48.5207 17.3654 48.5059 16.1799C48.4848 14.388 47.2701 12.8259 46.7256 11.1434C47.5972 11.5108 49.0016 12.8143 49.6631 13.9429V13.9432Z" fill="#2B2B2B"/>
<path d="M50.1998 41.9574C50.8323 41.8885 51.3884 43.6537 51.4381 44.0699C52.0927 49.5703 44.5298 55.8499 39.6377 51.9366C41.0887 50.9235 42.7599 50.335 43.8627 48.8774C45.1532 47.1713 44.873 45.6731 46.7036 44.1425C46.9688 43.9208 49.995 41.9794 50.2001 41.9574H50.1998Z" fill="white"/>
<path d="M44.9558 39.9182C46.5625 39.7197 48.4344 39.8717 49.6907 41.0109C48.5976 41.7882 47.1344 42.2383 46.1215 43.1234C44.3462 44.6744 44.4783 46.6966 42.9893 48.2952C41.9453 49.4159 40.0882 50.1069 38.8373 50.9902C35.8598 46.6982 40.2918 40.4941 44.9558 39.9182Z" fill="white"/>
<path d="M43.9847 8.55432C45.1265 5.98261 50.2404 4.00161 50.2885 2.37981C50.3215 1.26538 48.6544 0.0506141 47.0389 0.0015452C45.2734 -0.0519273 43.6066 1.2874 43.2031 3.24701C41.882 1.31477 39.6166 0.646361 37.9813 1.43241C36.9503 1.92813 35.8487 3.1558 36.0956 4.17681C36.4857 5.78916 40.8147 5.17957 42.1755 7.57451" fill="#2B2B2B"/>
</svg>
