<svg width="48" height="48" viewBox="0 0 48 48" fill="none" xmlns="http://www.w3.org/2000/svg">
<path d="M45.9315 48L27.5847 29.6554C26.1198 30.9034 24.4351 31.8692 22.5307 32.5527C20.6263 33.2363 18.7121 33.578 16.7881 33.578C12.0964 33.578 8.1255 31.9541 4.8753 28.7063C1.6251 25.4584 0 21.4889 0 16.7978C0 12.1067 1.62314 8.13525 4.86944 4.8835C8.11573 1.63174 12.0847 0.00391304 16.7764 7.0252e-06C21.4681 -0.00389899 25.441 1.621 28.6951 4.87471C31.9492 8.12842 33.5763 12.0999 33.5763 16.789C33.5763 18.8241 33.2159 20.7937 32.4951 22.6978C31.7744 24.602 30.8271 26.2308 29.6532 27.5843L48 45.9259L45.9315 48ZM16.7911 30.6456C20.678 30.6456 23.9595 29.3078 26.6354 26.6322C29.3114 23.9565 30.6493 20.6745 30.6493 16.7861C30.6493 12.8977 29.3114 9.61661 26.6354 6.94294C23.9595 4.26928 20.678 2.93147 16.7911 2.92952C12.9041 2.92756 9.62168 4.26537 6.94378 6.94294C4.26589 9.62051 2.92791 12.9016 2.92987 16.7861C2.93182 20.6706 4.26979 23.9517 6.94378 26.6292C9.61777 29.3068 12.8992 30.6446 16.7881 30.6427" fill="black"/>
</svg>
