<?xml version="1.0" encoding="UTF-8"?>
<svg id="Layer_1" xmlns="http://www.w3.org/2000/svg" version="1.1" viewBox="0 0 850 850">
  <!-- Generator: Adobe Illustrator 29.5.1, SVG Export Plug-In . SVG Version: 2.1.0 Build 141)  -->
  <defs>
    <style>
      .st0 {
        fill: #f9f6f1;
      }

      .st1 {
        fill: #577866;
      }
    </style>
  </defs>
  <circle class="st1" cx="426.7" cy="426.3" r="418.3"/>
  <path class="st0" d="M386.7,369.9c6.3,12.8,24.3,33.6-10.2,13.8-76.9-44.1.6-115.5,24.7-158.3,23.2-41.3,6.2-56.5-9-95.7,19.2,9.7,45.6,33.6,48.8,56,9.5,67.6-97.7,96.1-54.2,184.2Z"/>
  <path class="st0" d="M196.9,363.2c158.8,69.8,313.8,75.8,450.3,0,25.7,5.4,27.3,24.3,26.5,47,48.1-6.3,82.3,33.2,77.7,80.1-4.3,43.2-58.1,57.7-93.3,65.6-11,2.5-35.2,2.7-43.3,6-3.4,1.4-36.3,35.4-45.8,42.1-16.1,11.5-34.4,19.2-51.2,29.5l-17.4,7.7c17,2.2,133.5-39.8,190.2,17l-264.3-.6-287.2-.6c58.9-58.9,212.2-9.3,221.8-14l-33.4-9.5c-13.9-8.1-29.2-13.7-42.7-22.3-55.9-35.4-97.2-99.2-109-164.3-4.6-25.6-15.7-79.9,21.1-83.7h0Z"/>
  <path class="st1" d="M676.1,435.5c31.6-6.5,57.7,29.1,48.8,58.4-7,23.1-65.9,37-87.3,39.1-1.5-1.2-.3-3.5,0-4.8.8-4.6,17.8-33.2,21.1-42.7,2.8-8,9.5-44.9,10.8-47,.8-1.3,5.2-2.7,6.6-3Z"/>
  <path class="st0" d="M477.5,236.8c15.9,40.9-20,67.5-41.7,96.5-10.5,14.1-17.8,29.3-12.1,46.9,0,.8,5.5,9.8,3.9,11.2-8.3-1.8-19.3-13.4-20.2-22.1-.3-3.5,0-7,.9-10.4,5.8-30.5,32.3-50,48.9-74.2,5.8-8.6,10.3-17.9,10.2-28.3-.2-15.7-10.8-29.4-15.6-44.1,7.6,3.2,19.9,14.6,25.7,24.5h0Z"/>
  <path class="st1" d="M482.2,482c5.5-.6,10.4,14.8,10.8,18.5,5.7,48.1-60.5,103.1-103.3,68.9,12.7-8.9,27.3-14,37-26.8,11.3-14.9,8.8-28,24.9-41.4,2.3-1.9,28.8-18.9,30.6-19.1h0Z"/>
  <path class="st1" d="M436.3,464.1c14.1-1.7,30.4-.4,41.4,9.6-9.6,6.8-22.4,10.7-31.2,18.5-15.5,13.6-14.4,31.3-27.4,45.3-9.1,9.8-25.4,15.9-36.3,23.6-26.1-37.6,12.7-91.9,53.6-96.9h0Z"/>
  <path class="st0" d="M427.8,189.6c10-22.5,54.8-39.8,55.2-54,.3-9.8-14.3-20.4-28.4-20.8-15.5-.5-30,11.3-33.6,28.4-11.6-16.9-31.4-22.8-45.7-15.9-9,4.3-18.7,15.1-16.5,24,3.4,14.1,41.3,8.8,53.2,29.7"/>
</svg>